<?xml version="1.0" standalone="no"?>
<!DOCTYPE svg PUBLIC "-//W3C//DTD SVG 20010904//EN"
 "http://www.w3.org/TR/2001/REC-SVG-20010904/DTD/svg10.dtd">
<svg version="1.0" xmlns="http://www.w3.org/2000/svg"
 width="512.000000pt" height="512.000000pt" viewBox="0 0 512.000000 512.000000"
 preserveAspectRatio="xMidYMid meet">

<g transform="translate(0.000000,512.000000) scale(0.100000,-0.100000)"
fill="#000000" stroke="none">
<path d="M4890 4811 c0 -43 -12 -63 -59 -100 l-40 -32 -99 41 c-54 22 -103 40
-109 40 -14 0 -23 -24 -23 -64 0 -28 -11 -43 -87 -111 -49 -43 -96 -86 -107
-96 -18 -17 -18 -18 8 -52 l26 -34 -72 -63 -72 -62 -26 32 -26 32 -94 -86
c-52 -47 -98 -85 -102 -86 -5 0 -8 22 -8 49 l0 49 -77 17 c-43 9 -86 19 -95
21 -16 5 -18 -5 -18 -107 l0 -112 62 -70 62 -70 -79 -74 c-44 -40 -83 -73 -87
-73 -4 0 -57 56 -119 125 -62 69 -118 125 -124 125 -6 0 -26 -15 -44 -34 l-33
-34 98 -109 c54 -59 107 -118 118 -130 l19 -23 -59 -54 c-32 -31 -62 -55 -66
-56 -3 0 -57 56 -118 125 -62 69 -118 125 -124 125 -7 0 -27 -15 -45 -34 l-34
-35 117 -128 116 -128 -56 -52 c-32 -29 -61 -53 -65 -53 -4 0 -58 54 -120 120
-62 66 -117 120 -122 120 -6 0 -47 -35 -92 -77 -45 -43 -139 -129 -208 -191
-70 -62 -127 -120 -127 -129 0 -9 12 -31 26 -50 l25 -33 -54 -50 c-30 -28 -65
-58 -77 -68 l-21 -17 67 -75 c37 -41 89 -99 116 -128 l50 -53 75 68 c42 37 93
83 115 102 l39 33 54 -51 c57 -54 92 -64 138 -40 12 7 87 71 167 143 212 191
189 174 206 152 7 -11 25 -27 38 -35 14 -9 144 -149 291 -311 146 -162 280
-303 298 -313 38 -22 91 -18 132 9 l28 18 -26 7 c-36 10 -60 28 -108 83 l-42
48 33 26 c38 30 110 137 110 163 0 10 -14 35 -32 54 l-31 36 -32 -68 c-32 -66
-94 -139 -113 -132 -5 2 -32 30 -59 63 l-50 58 42 39 c23 21 56 65 73 97 l31
57 -36 43 -36 43 -33 -68 c-18 -37 -48 -83 -68 -102 -39 -38 -53 -34 -82 21
-18 34 -12 59 26 108 31 39 50 89 50 129 0 16 -18 48 -48 83 -26 32 -57 71
-69 87 l-23 29 113 102 c117 106 137 134 121 170 -8 18 -2 29 43 74 42 42 53
60 53 85 0 36 -13 65 -43 99 l-21 22 49 50 c27 28 54 50 60 50 5 0 33 -25 61
-55 36 -39 58 -55 77 -55 48 0 187 129 187 174 0 14 -21 49 -50 84 l-50 60
106 95 c102 92 106 94 147 90 41 -4 45 -2 137 82 126 114 134 138 65 205 l-35
34 0 -33z m-1030 -1344 c0 -2 -17 -19 -37 -38 l-38 -34 34 38 c33 34 41 42 41
34z m-110 -100 c0 -2 -15 -16 -32 -33 l-33 -29 29 33 c28 30 36 37 36 29z"/>
<path d="M1930 3339 c-28 -22 -54 -47 -57 -55 -3 -9 22 -44 63 -90 38 -42 81
-91 95 -108 l26 -31 56 48 c91 77 86 119 -27 225 -36 34 -63 52 -80 52 -13 0
-47 -18 -76 -41z"/>
<path d="M2483 2959 c-48 -44 -57 -74 -20 -66 12 3 48 9 80 12 44 6 57 11 57
24 0 18 -49 71 -66 71 -5 0 -28 -19 -51 -41z"/>
<path d="M1879 2750 c-68 -60 -127 -110 -131 -110 -3 0 -31 14 -61 31 -52 30
-54 33 -44 59 8 22 7 33 -7 55 -14 22 -23 26 -54 23 -25 -2 -40 -9 -47 -24
-11 -22 -11 -21 -75 17 -36 21 -67 38 -71 39 -3 0 -22 -15 -42 -34 -32 -29
-37 -40 -37 -79 0 -41 5 -51 61 -113 103 -116 125 -134 164 -134 20 0 46 7 59
15 23 15 25 14 76 -44 50 -57 54 -60 73 -46 12 8 102 88 200 176 l178 161 -23
27 c-53 61 -82 91 -89 91 -3 0 -62 -49 -130 -110z"/>
<path d="M2669 2747 c-191 -173 -879 -790 -901 -807 l-27 -21 -57 56 c-31 30
-61 55 -66 55 -5 0 -43 26 -84 57 l-74 57 27 28 c26 27 26 28 8 50 -52 62
-101 108 -115 108 -9 0 -60 -42 -113 -92 -97 -92 -97 -93 -97 -141 0 -42 5
-53 42 -93 l42 -45 -65 -57 c-35 -31 -84 -75 -108 -98 l-44 -41 31 -74 c32
-78 62 -204 62 -262 0 -49 -24 -123 -53 -160 -14 -18 -115 -101 -225 -185
l-200 -152 -125 132 -126 133 -59 -55 c-33 -30 -60 -60 -61 -66 0 -6 29 -46
65 -89 51 -59 61 -75 43 -69 -13 4 -66 20 -117 35 -88 26 -93 26 -102 9 -19
-35 -12 -115 12 -146 33 -43 464 -523 508 -566 70 -68 162 -71 235 -7 41 37
43 51 12 93 -13 17 -27 47 -31 66 -12 60 -25 255 -19 299 l6 41 64 0 c93 0
143 42 143 120 0 79 21 123 93 190 79 75 97 104 97 157 0 39 -34 122 -71 174
-17 24 -18 33 -9 44 30 36 244 221 268 232 41 18 131 15 177 -6 51 -23 68 -43
74 -93 l6 -40 145 107 c80 59 147 109 149 110 1 2 -4 14 -13 27 -21 30 -20 61
2 82 18 15 20 15 38 -5 31 -34 116 -79 152 -79 42 0 41 13 -3 39 -40 23 -65
72 -65 124 0 33 30 70 104 125 63 48 187 11 240 -70 16 -25 16 -29 1 -62 -19
-39 -170 -189 -233 -231 -35 -23 -49 -26 -96 -23 -55 3 -55 3 -33 -14 12 -9
39 -25 59 -34 21 -9 40 -25 44 -36 5 -16 10 -12 34 24 16 24 101 114 188 202
l160 158 76 -51 c72 -49 236 -141 251 -141 4 0 3 29 0 65 l-7 64 82 -34 c120
-51 240 -92 349 -119 112 -29 243 -48 253 -38 4 4 10 26 14 50 l7 42 -33 0
c-108 0 -396 85 -574 169 -86 40 -106 54 -106 71 0 17 14 54 25 68 2 2 49 -18
106 -44 193 -86 466 -164 577 -164 35 0 40 3 45 28 3 15 9 35 12 45 6 13 2 17
-18 17 -44 0 -190 29 -282 55 -101 29 -203 69 -317 122 l-77 35 32 64 c17 35
29 65 26 66 -2 2 -25 18 -51 36 -25 17 -49 32 -52 32 -3 0 -53 -63 -112 -140
l-107 -140 -31 19 c-17 11 -40 31 -50 45 -27 35 -20 48 119 215 63 76 115 143
115 148 0 6 -9 18 -20 28 -19 17 -23 14 -162 -112 -339 -306 -347 -313 -381
-313 -22 0 -45 11 -72 34 -40 35 -40 35 -20 54 11 11 135 124 275 252 140 128
257 239 258 247 4 14 -25 53 -37 53 -3 -1 -27 -20 -52 -43z m-1219 -610 c0 -2
-19 -21 -42 -42 l-43 -40 40 43 c36 39 45 47 45 39z m-100 -90 c0 -2 -17 -19
-37 -38 l-38 -34 34 38 c33 34 41 42 41 34z"/>
<path d="M2253 2718 c-100 -84 -435 -392 -443 -408 -18 -34 -11 -71 19 -101
34 -34 73 -38 112 -11 43 29 457 411 463 428 13 34 5 67 -23 95 -40 39 -78 38
-128 -3z"/>
<path d="M2312 2278 c-19 -19 -14 -46 12 -63 29 -19 54 -10 62 21 11 43 -42
74 -74 42z"/>
<path d="M1947 1481 c-88 -8 -99 -20 -90 -105 3 -34 11 -94 18 -134 l12 -74
-53 4 c-50 3 -53 2 -48 -17 77 -260 134 -355 211 -355 22 0 308 112 376 146
46 24 37 56 -47 157 -33 40 -44 47 -75 47 -68 0 -78 7 -95 69 -9 31 -20 96
-25 144 -13 131 -15 133 -184 118z"/>
</g>
</svg>
