<?xml version="1.0" standalone="no"?>
<!DOCTYPE svg PUBLIC "-//W3C//DTD SVG 20010904//EN"
 "http://www.w3.org/TR/2001/REC-SVG-20010904/DTD/svg10.dtd">
<svg version="1.0" xmlns="http://www.w3.org/2000/svg"
 width="512.000000pt" height="512.000000pt" viewBox="0 0 512.000000 512.000000"
 preserveAspectRatio="xMidYMid meet">

<g transform="translate(0.000000,512.000000) scale(0.100000,-0.100000)"
fill="#000000" stroke="none">
<path d="M2065 4847 c-232 -96 -433 -260 -570 -466 -119 -179 -184 -362 -206
-582 -27 -261 39 -556 175 -776 l42 -68 -156 -1 c-118 -1 -180 -6 -258 -23
-541 -114 -949 -522 -1063 -1064 -27 -123 -31 -368 -10 -487 20 -111 66 -259
111 -355 32 -70 45 -88 71 -99 39 -16 84 -5 100 26 13 25 8 59 -26 168 -33
105 -44 263 -26 376 76 470 518 802 984 738 l46 -7 6 -76 c28 -316 158 -596
379 -816 80 -79 261 -215 287 -215 17 0 9 -34 -24 -110 -139 -318 -461 -530
-805 -530 -104 0 -164 10 -284 46 -104 32 -133 28 -154 -22 -12 -29 -12 -40
-2 -62 24 -51 244 -141 436 -179 119 -23 365 -23 485 0 281 56 532 192 729
395 78 80 196 237 222 293 5 12 7 12 12 0 26 -56 144 -213 222 -293 390 -403
964 -523 1492 -312 151 60 183 94 154 162 -19 46 -52 50 -148 19 -109 -35
-183 -47 -287 -47 -346 0 -667 211 -806 529 -33 77 -41 111 -24 111 26 0 207
136 287 215 221 219 351 500 379 816 l6 76 46 7 c176 24 374 -14 532 -100 382
-210 555 -658 412 -1068 -26 -74 -26 -101 0 -127 15 -15 30 -19 62 -17 51 4
68 27 121 158 137 342 137 705 1 1035 -162 395 -508 696 -921 801 -123 31
-289 48 -396 40 l-87 -6 44 71 c126 205 198 492 181 729 -29 412 -231 764
-566 982 -78 52 -207 117 -273 138 -49 15 -90 0 -107 -41 -19 -45 1 -77 78
-129 92 -61 250 -217 310 -303 108 -157 151 -277 159 -443 9 -183 -39 -360
-137 -506 -83 -124 -65 -117 -172 -65 -192 94 -352 131 -568 131 -216 0 -376
-37 -568 -131 -107 -52 -89 -59 -172 65 -163 243 -185 581 -56 856 42 90 88
153 173 239 64 64 193 160 255 187 57 26 58 113 2 139 -35 15 -39 15 -129 -22z"/>
</g>
</svg>
