<?xml version="1.0" standalone="no"?>
<!DOCTYPE svg PUBLIC "-//W3C//DTD SVG 20010904//EN"
 "http://www.w3.org/TR/2001/REC-SVG-20010904/DTD/svg10.dtd">
<svg version="1.0" xmlns="http://www.w3.org/2000/svg"
 width="512.000000pt" height="512.000000pt" viewBox="0 0 512.000000 512.000000"
 preserveAspectRatio="xMidYMid meet">

<g transform="translate(0.000000,512.000000) scale(0.100000,-0.100000)"
fill="#000000" stroke="none">
<path d="M4550 4615 c-116 -43 -287 -126 -399 -196 -65 -40 -375 -264 -413
-298 -4 -3 30 -6 75 -6 131 0 220 -53 274 -163 24 -48 28 -69 28 -139 0 -45 3
-79 6 -75 34 37 258 348 298 413 68 110 162 302 200 412 17 48 29 87 28 87 -1
-1 -45 -16 -97 -35z"/>
<path d="M2060 4260 c-52 -19 -147 -77 -169 -104 -8 -9 6 -28 48 -70 l59 -59
45 62 c40 53 87 152 87 181 0 13 -6 12 -70 -10z"/>
<path d="M1696 3961 l-69 -69 79 -6 c44 -4 91 -9 105 -11 18 -3 33 3 48 18
l21 23 -58 57 -58 57 -68 -69z"/>
<path d="M3650 3935 c-74 -13 -149 -27 -167 -30 -26 -5 -49 -27 -122 -119 -50
-63 -91 -118 -91 -122 0 -12 382 -394 394 -394 20 0 234 182 239 203 3 12 18
99 33 192 l28 171 -20 39 c-42 85 -93 96 -294 60z"/>
<path d="M2661 3807 l-254 -141 -671 56 -671 56 -92 -91 c-51 -50 -91 -93 -89
-94 2 -2 362 -26 799 -54 l796 -50 166 111 166 110 142 0 142 0 77 97 c42 54
76 99 74 101 -2 1 -61 9 -132 17 -71 8 -145 17 -164 19 -30 4 -68 -14 -289
-137z"/>
<path d="M2690 3438 l-164 -111 -841 52 c-462 28 -856 53 -875 54 l-35 2 -3
-111 -3 -111 212 -264 c116 -145 212 -266 214 -267 4 -4 327 -41 358 -42 11 0
50 -30 88 -67 l70 -67 54 54 55 55 57 -58 58 -57 -55 -55 -54 -54 67 -70 c106
-110 125 -77 -261 -465 -181 -182 -343 -352 -360 -378 -70 -102 -158 -325
-138 -345 20 -20 242 70 345 139 25 17 195 179 377 360 388 386 355 367 465
261 l70 -67 54 54 55 55 57 -58 58 -57 -55 -55 -54 -54 65 -68 66 -68 18 -175
c10 -96 21 -182 24 -192 3 -9 125 -111 270 -227 l263 -211 109 0 109 0 0 38
c0 20 -23 415 -51 877 l-52 841 111 167 c108 161 112 168 112 221 l0 54 -67
-24 c-87 -30 -186 -32 -274 -4 -35 11 -73 27 -84 35 -18 15 -30 5 -207 -172
l-188 -188 -57 58 -58 57 188 188 c177 177 187 189 172 207 -8 11 -24 49 -35
84 -28 88 -26 187 4 274 l24 67 -56 -1 c-56 0 -61 -3 -222 -111z m-130 -883
l54 -55 -54 -55 -54 -55 -58 57 -58 57 52 53 c29 29 55 53 58 53 3 0 30 -25
60 -55z"/>
<path d="M3135 3504 c-62 -81 -73 -193 -29 -282 49 -99 135 -147 248 -140 72
5 109 19 159 60 l28 23 -189 188 -189 188 -28 -37z"/>
<path d="M3807 3172 l-97 -77 0 -142 0 -142 -110 -166 -111 -166 50 -796 c28
-437 52 -797 54 -799 1 -2 44 38 94 89 l91 92 -56 671 -56 671 141 254 141
255 -18 163 c-11 90 -21 165 -22 167 -2 1 -47 -32 -101 -74z"/>
<path d="M448 2483 c-60 -60 -108 -112 -108 -116 0 -4 28 -73 62 -153 l61
-144 236 0 236 0 215 215 c118 118 212 215 209 215 -11 0 -721 79 -764 85 -40
5 -41 5 -147 -102z"/>
<path d="M1312 2217 l-222 -222 113 -113 112 -112 225 225 225 225 -110 110
c-60 60 -112 110 -115 110 -3 0 -105 -100 -228 -223z"/>
<path d="M4197 2106 c-32 -13 -83 -43 -113 -66 l-56 -42 58 -60 59 -59 33 38
c34 40 85 138 96 186 8 34 -1 34 -77 3z"/>
<path d="M3893 1858 c-19 -21 -20 -30 -11 -118 4 -52 9 -98 11 -103 1 -4 32
23 70 61 l67 68 -58 57 -58 57 -21 -22z"/>
<path d="M968 1824 c-14 -21 -33 -54 -43 -72 l-19 -32 67 -68 67 -67 53 28
c104 57 104 45 -5 154 l-96 96 -24 -39z"/>
<path d="M1992 1537 l-222 -222 113 -113 112 -112 225 225 225 225 -110 110
c-60 60 -112 110 -115 110 -3 0 -105 -100 -228 -223z"/>
<path d="M2282 1147 l-212 -212 0 -236 0 -236 144 -61 c80 -34 149 -62 153
-62 5 0 56 48 115 107 l107 108 -44 399 c-25 220 -46 401 -48 402 -2 2 -98
-92 -215 -209z"/>
<path d="M1628 1115 c-21 -35 -38 -67 -38 -72 0 -11 123 -133 134 -133 7 0
120 64 135 77 5 4 -180 193 -189 193 -3 0 -22 -29 -42 -65z"/>
</g>
</svg>
