<?xml version="1.0" standalone="no"?>
<!DOCTYPE svg PUBLIC "-//W3C//DTD SVG 20010904//EN"
 "http://www.w3.org/TR/2001/REC-SVG-20010904/DTD/svg10.dtd">
<svg version="1.0" xmlns="http://www.w3.org/2000/svg"
 width="512.000000pt" height="512.000000pt" viewBox="0 0 512.000000 512.000000"
 preserveAspectRatio="xMidYMid meet">

<g transform="translate(0.000000,512.000000) scale(0.100000,-0.100000)"
fill="#000000" stroke="none">
<path d="M4790 5030 c-113 -4 -254 -15 -315 -25 -445 -68 -806 -255 -1205
-624 l-65 -60 558 -558 558 -558 65 70 c425 461 624 920 640 1480 2 94 6 196
8 228 4 53 3 57 -17 55 -12 -1 -114 -5 -227 -8z"/>
<path d="M2790 3434 c-108 -21 -231 -85 -305 -159 -54 -55 -110 -146 -137
-223 -32 -95 -32 -249 0 -344 58 -169 191 -302 360 -360 95 -32 249 -32 344 0
172 59 307 197 361 367 31 99 30 244 -1 337 -57 167 -191 301 -355 358 -61 21
-212 34 -267 24z m205 -89 c172 -45 305 -179 350 -352 65 -249 -94 -511 -350
-578 -251 -65 -513 94 -580 350 -89 343 237 669 580 580z"/>
<path d="M2673 3171 c-87 -63 -153 -196 -153 -308 0 -24 2 -25 43 -20 23 4 68
9 100 13 52 6 57 8 57 31 0 37 29 92 61 115 l28 21 -45 88 c-24 49 -46 89 -48
89 -1 0 -21 -13 -43 -29z"/>
<path d="M2996 3112 l-45 -89 28 -21 c32 -23 61 -78 61 -115 0 -23 5 -25 58
-31 31 -4 76 -9 100 -13 40 -5 42 -4 42 20 0 118 -79 267 -169 320 l-30 18
-45 -89z"/>
<path d="M2825 2935 c-16 -15 -25 -36 -25 -55 0 -19 9 -40 25 -55 15 -16 36
-25 55 -25 19 0 40 9 55 25 16 15 25 36 25 55 0 19 -9 40 -25 55 -15 16 -36
25 -55 25 -19 0 -40 -9 -55 -25z"/>
<path d="M2761 2642 l-41 -83 37 -17 c52 -23 194 -23 246 0 l37 17 -41 83 -41
83 -78 0 -78 0 -41 -83z"/>
<path d="M825 2980 c-231 -231 -413 -420 -405 -420 38 1 899 -51 929 -56 l34
-5 -141 -142 c-152 -154 -171 -186 -157 -269 7 -39 6 -40 -87 -136 -109 -112
-128 -154 -107 -238 15 -57 42 -87 469 -512 378 -376 400 -391 510 -341 26 11
81 56 131 106 86 85 87 85 127 78 89 -15 112 0 299 193 l173 177 0 -525 0
-525 419 420 419 420 -29 455 c-15 250 -28 476 -29 503 0 26 -3 47 -7 46 -5 0
-136 -134 -293 -299 -157 -164 -287 -299 -290 -299 -3 -1 -264 258 -580 574
l-575 575 290 290 c159 159 284 290 276 290 -28 0 -838 49 -896 55 l-60 5
-420 -420z"/>
</g>
</svg>
