<?xml version="1.0" standalone="no"?>
<!DOCTYPE svg PUBLIC "-//W3C//DTD SVG 20010904//EN"
 "http://www.w3.org/TR/2001/REC-SVG-20010904/DTD/svg10.dtd">
<svg version="1.0" xmlns="http://www.w3.org/2000/svg"
 width="512.000000pt" height="512.000000pt" viewBox="0 0 512.000000 512.000000"
 preserveAspectRatio="xMidYMid meet">

<g transform="translate(0.000000,512.000000) scale(0.100000,-0.100000)"
fill="#000000" stroke="none">
<path d="M1255 5106 c-37 -16 -70 -52 -84 -89 -7 -18 -11 -161 -11 -400 0
-343 1 -375 19 -407 30 -58 67 -74 288 -129 114 -29 226 -57 247 -62 l39 -11
-281 -281 c-229 -230 -284 -290 -297 -326 -12 -34 -15 -92 -15 -266 0 -248 3
-259 67 -271 26 -5 37 -1 57 19 l26 26 0 201 0 200 1250 0 1250 0 0 -1165 0
-1165 -193 0 c-209 0 -228 -4 -241 -55 -6 -24 -10 -25 -76 -25 -65 0 -71 2
-80 24 -22 59 31 56 -982 56 l-928 0 0 843 0 844 -23 21 c-33 31 -80 29 -107
-5 l-21 -27 3 -950 c3 -942 4 -952 25 -1028 92 -324 331 -562 655 -650 82 -23
88 -23 723 -23 628 0 641 1 717 22 322 91 559 329 651 652 22 76 22 78 25
1371 2 982 0 1306 -9 1340 -11 40 -44 77 -297 332 l-285 286 39 11 c22 5 133
33 247 62 221 55 258 71 289 129 17 33 18 60 16 422 -3 373 -4 388 -24 414
-11 15 -32 36 -45 47 -53 39 -85 34 -398 -57 l-294 -86 -198 0 -199 0 0 29 c0
33 -33 85 -73 115 -26 19 -42 21 -167 21 -125 0 -141 -2 -167 -21 -40 -30 -73
-82 -73 -115 l0 -29 -198 0 -198 0 -292 85 c-160 47 -304 85 -319 85 -15 -1
-41 -7 -58 -14z m1065 -806 l0 -170 -175 0 -175 0 0 170 0 170 175 0 175 0 0
-170z m830 0 l0 -170 -175 0 -175 0 0 170 0 170 175 0 175 0 0 -170z m-500
-3975 l0 -175 -90 0 -90 0 0 175 0 175 90 0 90 0 0 -175z"/>
<path d="M2410 3123 c-135 -22 -322 -89 -386 -138 -55 -42 -50 -59 97 -313 71
-125 138 -233 147 -240 21 -17 59 -11 145 22 53 20 86 26 147 26 61 0 94 -6
147 -26 86 -33 124 -39 145 -22 9 7 76 115 147 240 150 259 153 272 91 317
-59 42 -204 97 -318 121 -94 19 -285 26 -362 13z"/>
<path d="M2456 2280 c-55 -28 -82 -55 -111 -114 -58 -115 -9 -256 109 -318 57
-31 155 -31 212 0 227 119 146 453 -108 452 -42 -1 -76 -7 -102 -20z"/>
<path d="M1513 2114 c-25 -25 -26 -29 -20 -113 20 -282 131 -518 334 -712 99
-94 197 -159 240 -159 24 0 38 8 56 33 32 42 252 426 261 453 10 33 -10 66
-66 104 -99 67 -178 212 -178 327 0 33 -6 50 -25 68 l-24 25 -276 0 -276 0
-26 -26z"/>
<path d="M3005 2115 c-19 -18 -25 -35 -25 -68 0 -113 -74 -252 -172 -323 -101
-73 -102 -65 42 -316 154 -267 162 -278 203 -278 68 0 263 160 367 300 120
162 192 359 207 571 6 84 5 88 -20 113 l-26 26 -276 0 -276 0 -24 -25z"/>
</g>
</svg>
