<?xml version="1.0" standalone="no"?>
<!DOCTYPE svg PUBLIC "-//W3C//DTD SVG 20010904//EN"
 "http://www.w3.org/TR/2001/REC-SVG-20010904/DTD/svg10.dtd">
<svg version="1.0" xmlns="http://www.w3.org/2000/svg"
 width="512.000000pt" height="512.000000pt" viewBox="0 0 512.000000 512.000000"
 preserveAspectRatio="xMidYMid meet">

<g transform="translate(0.000000,512.000000) scale(0.100000,-0.100000)"
fill="#000000" stroke="none">
<path d="M2560 3440 l0 -240 -120 0 -120 0 0 160 0 160 -160 0 -160 0 0 -160
0 -160 -238 0 -237 0 -80 -80 -80 -80 -562 0 -563 0 0 -480 0 -480 160 0 160
0 0 80 0 80 162 0 162 0 122 -81 121 -80 314 3 314 3 56 26 c71 34 125 87 158
158 22 48 26 72 29 176 l4 120 76 78 77 77 482 0 483 0 0 -80 0 -80 253 0
c242 0 255 1 297 23 67 33 90 85 90 204 l0 93 -320 0 -320 0 0 160 0 160 -200
0 -200 0 0 240 0 240 -80 0 -80 0 0 -240z m-800 -560 l0 -80 -80 0 -80 0 0 80
0 80 80 0 80 0 0 -80z m-640 -160 l0 -80 -160 0 -160 0 0 80 0 80 160 0 160 0
0 -80z m400 -240 l0 -80 80 0 80 0 0 80 0 80 81 0 81 0 -4 -109 c-3 -118 -12
-141 -72 -185 -25 -19 -44 -21 -217 -24 l-189 -3 0 104 c0 92 3 108 23 138 28
41 82 79 113 79 23 0 24 -3 24 -80z"/>
<path d="M4560 3040 l0 -160 160 0 160 0 0 160 0 160 -160 0 -160 0 0 -160z"/>
<path d="M3082 1440 l-40 -160 238 0 238 0 -40 160 -40 160 -158 0 -158 0 -40
-160z"/>
</g>
</svg>
