<?xml version="1.0" standalone="no"?>
<!DOCTYPE svg PUBLIC "-//W3C//DTD SVG 20010904//EN"
 "http://www.w3.org/TR/2001/REC-SVG-20010904/DTD/svg10.dtd">
<svg version="1.0" xmlns="http://www.w3.org/2000/svg"
 width="512.000000pt" height="512.000000pt" viewBox="0 0 512.000000 512.000000"
 preserveAspectRatio="xMidYMid meet">

<g transform="translate(0.000000,512.000000) scale(0.100000,-0.100000)"
fill="#000000" stroke="none">
<path d="M1895 4974 c-33 -8 -98 -33 -145 -56 -68 -33 -101 -57 -166 -123 -56
-56 -92 -85 -114 -90 -46 -10 -104 -72 -119 -127 -15 -55 -8 -94 25 -144 23
-34 25 -43 19 -113 -3 -42 -16 -106 -28 -143 -18 -57 -20 -74 -10 -109 9 -35
8 -48 -8 -83 -28 -61 -26 -195 2 -254 26 -52 91 -98 153 -107 41 -6 43 -9 71
-72 17 -39 50 -89 82 -123 65 -70 68 -87 14 -82 -90 9 -358 -69 -552 -160
l-107 -50 -94 43 c-51 23 -117 55 -147 71 -65 34 -119 36 -173 6 -45 -26 -163
-194 -267 -384 -102 -183 -122 -271 -101 -423 13 -94 25 -124 67 -162 54 -51
127 -57 246 -23 14 5 8 -14 -29 -88 -26 -51 -69 -145 -95 -208 -26 -63 -62
-132 -79 -153 -154 -184 -144 -443 24 -625 42 -45 79 -72 134 -99 73 -37 80
-38 181 -38 95 0 112 3 161 27 30 15 76 48 102 72 26 25 60 52 76 60 l30 16 4
-173 c3 -158 5 -176 27 -221 15 -30 40 -60 68 -79 l43 -31 0 -86 c0 -74 4 -94
26 -136 l26 -48 -11 -160 c-5 -88 -9 -162 -7 -164 4 -3 1847 -4 1851 0 2 2 -1
76 -6 165 l-10 162 25 38 c13 21 29 57 35 79 l11 42 43 -15 c31 -11 78 -14
187 -11 135 3 149 5 197 31 67 34 116 84 150 150 24 46 28 66 31 170 2 64 6
117 9 117 3 0 43 -24 88 -52 l83 -53 -5 -55 c-6 -72 16 -107 99 -160 75 -49
126 -53 183 -15 l37 26 85 -56 c48 -30 90 -55 95 -55 23 0 48 24 88 85 23 36
44 65 47 65 2 0 42 -23 89 -52 66 -40 88 -49 104 -42 25 11 160 202 160 226 0
22 -36 49 -229 169 -148 93 -148 93 -140 123 19 66 -16 123 -115 185 -63 39
-116 41 -167 7 l-36 -25 -344 218 -344 217 -23 135 c-101 601 -161 792 -287
923 -30 31 -44 57 -53 96 -16 67 -53 132 -91 160 l-30 20 25 72 c40 118 27
199 -38 242 -37 24 -271 96 -313 96 -77 0 -128 -48 -157 -148 l-22 -74 -44 6
c-25 3 -62 6 -83 6 -22 0 -39 5 -39 11 0 6 24 37 53 69 32 34 65 84 82 123
l29 65 58 12 c69 13 122 54 149 115 26 57 25 185 -1 243 -14 32 -18 55 -13 87
4 32 0 63 -15 107 -11 35 -23 97 -26 140 -6 70 -5 79 18 113 33 48 40 91 26
144 -14 51 -75 116 -119 126 -21 4 -59 34 -114 89 -94 94 -182 145 -303 176
-91 24 -211 25 -299 4z m240 -99 c65 -14 186 -66 229 -100 17 -13 18 -18 6
-40 -13 -24 -17 -25 -112 -25 -104 0 -154 -13 -194 -51 -21 -19 -21 -19 -47 1
-53 42 -90 50 -234 50 l-137 0 34 35 c44 45 152 101 242 125 89 23 123 24 213
5z m-455 -297 c0 -18 -102 -118 -120 -118 -25 0 -77 37 -83 59 -3 12 3 31 15
46 18 23 26 25 104 25 59 0 84 -4 84 -12z m630 -3 c0 -15 -103 -96 -148 -118
-52 -24 -53 59 -2 106 26 23 39 27 90 27 46 0 60 -3 60 -15z m-744 -358 c-18
-39 -44 -94 -58 -122 l-26 -50 -13 28 c-11 24 -9 36 9 90 13 36 22 86 22 120
l0 57 50 -25 49 -25 -33 -73z m826 -206 c13 -11 32 -38 42 -60 18 -39 18 -40
-3 -74 -11 -19 -44 -55 -71 -81 -173 -162 -506 -151 -662 22 -58 64 -69 91
-53 130 8 17 25 43 39 57 l25 25 329 0 c310 0 331 -1 354 -19z m364 -574 c3
-3 -34 -126 -41 -135 -2 -2 -67 19 -74 24 -3 3 27 101 37 118 4 7 69 2 78 -7z
m182 -61 c28 -10 52 -23 52 -30 0 -12 -30 -107 -36 -115 -3 -3 -134 39 -134
43 0 1 7 25 16 52 9 27 18 55 20 63 2 7 10 11 17 8 6 -2 36 -12 65 -21z m-940
-112 c59 -6 203 15 244 37 42 22 10 -92 -40 -144 -110 -116 -305 -81 -366 65
-9 21 -16 48 -16 62 l0 24 59 -18 c32 -11 86 -22 119 -26z m-311 -29 c18 -13
83 -190 169 -463 2 -7 0 -11 -4 -9 -4 3 -155 71 -337 152 -181 81 -341 153
-354 160 -23 11 -16 15 105 63 107 42 232 80 349 105 38 8 51 7 72 -8z m790
-3 c10 -6 10 -17 0 -52 -11 -40 -18 -47 -57 -62 l-45 -17 38 0 c23 -1 37 -6
37 -13 0 -7 -14 -56 -30 -108 -36 -115 -36 -125 -6 -182 l24 -46 -30 -6 c-25
-5 -28 -9 -19 -20 9 -11 8 -30 -5 -82 -9 -38 -20 -73 -24 -77 -9 -10 -120 58
-120 73 0 6 18 100 40 208 38 192 82 354 102 380 11 13 76 16 95 4z m180 -13
l31 -10 -20 -67 c-11 -37 -21 -68 -22 -70 -3 -2 -68 18 -74 23 -4 3 15 76 28
111 11 27 15 28 57 13z m199 -65 c27 -9 53 -20 58 -25 10 -9 -22 -129 -34
-129 -3 0 -34 10 -69 21 -48 16 -62 25 -58 38 3 9 11 37 18 64 7 26 18 47 24
47 6 0 34 -7 61 -16z m-1571 -254 c226 -101 414 -186 418 -190 8 -7 -69 -110
-83 -110 -5 0 -127 46 -272 101 -248 96 -266 101 -320 96 -58 -5 -145 -39
-199 -78 -16 -11 -43 -46 -58 -77 -37 -72 -64 -97 -137 -127 -63 -26 -74 -22
-74 25 0 45 19 93 71 185 60 106 231 365 239 361 3 -2 190 -85 415 -186z
m1765 71 c5 -20 10 -52 10 -72 0 -36 -1 -36 -52 -47 -29 -5 -53 -9 -54 -9 0 1
13 44 29 95 24 77 31 91 43 81 7 -6 18 -28 24 -48z m-471 18 c18 -7 31 -18 30
-27 -1 -26 -35 -117 -42 -114 -4 1 -15 2 -24 2 -43 1 -47 14 -27 84 10 36 22
66 25 66 3 0 20 -5 38 -11z m203 -67 c32 -10 60 -21 64 -24 6 -7 -23 -107 -36
-122 -8 -8 -107 19 -123 34 -9 8 21 130 32 130 3 0 32 -8 63 -18z m-566 -403
c96 -61 174 -112 174 -113 0 -2 -7 -20 -15 -39 -21 -51 -19 -99 8 -138 30 -45
250 -195 299 -204 52 -9 101 9 138 52 34 38 41 38 99 -6 l25 -19 -103 -137
c-56 -75 -108 -138 -116 -141 -7 -3 -88 44 -179 105 l-166 111 0 48 c-1 63
-28 120 -80 165 -76 65 -269 148 -384 165 l-45 7 50 115 c51 116 68 140 102
140 10 0 97 -50 193 -111z m-707 -450 c42 -53 51 -91 31 -129 -9 -17 -485
-270 -506 -270 -5 0 -22 23 -39 51 -16 28 -51 71 -77 95 l-47 44 47 20 c26 11
160 70 297 130 138 60 251 109 252 109 1 1 20 -22 42 -50z m2170 -476 c251
-157 460 -290 465 -294 12 -11 -42 -92 -57 -86 -15 6 -918 576 -931 588 -9 8
48 79 62 79 3 0 210 -129 461 -287z m-1219 -50 l0 -113 -147 0 c-207 0 -193
-8 -193 109 0 135 7 171 34 172 11 0 48 10 81 22 l60 22 82 -50 83 -50 0 -112z
m180 141 c36 -24 46 -26 100 -21 56 6 100 -4 100 -24 0 -4 -45 -24 -100 -44
-114 -43 -115 -34 20 -110 81 -46 110 -69 110 -87 0 -11 -213 -10 -244 2 -14
5 -33 21 -42 36 -30 45 -20 274 12 274 2 0 22 -12 44 -26z m-673 -200 c24 -24
25 -29 21 -116 -4 -87 -6 -92 -36 -119 -32 -28 -35 -29 -148 -29 -114 0 -116
0 -145 29 -28 28 -29 33 -29 123 0 94 8 120 40 131 8 3 73 6 143 6 125 1 129
0 154 -25z m-463 -6 c11 -16 16 -46 16 -100 0 -137 -24 -158 -180 -158 -71 0
-110 5 -130 15 -34 17 -56 53 -43 66 13 13 306 198 315 198 4 1 14 -9 22 -21z
m1258 -313 c45 -12 63 -23 85 -52 27 -35 28 -41 31 -176 5 -200 13 -187 -114
-187 -184 0 -194 15 -194 288 l0 189 68 -23 c37 -13 93 -30 124 -39z m1858
-166 c80 -50 146 -93 148 -94 5 -4 -52 -84 -60 -85 -6 0 -285 174 -297 186 -6
5 48 84 57 84 4 0 73 -41 152 -91z m-3305 -4 c33 -7 93 -16 133 -20 67 -7 72
-9 72 -30 0 -35 -16 -70 -41 -94 -20 -19 -35 -21 -137 -21 -62 0 -122 5 -133
10 -33 18 -49 64 -49 139 l0 70 48 -20 c26 -11 74 -26 107 -34z m434 10 c35
-9 101 -19 148 -22 96 -7 102 -13 84 -73 -20 -68 -46 -80 -178 -80 -113 0
-115 0 -144 29 -27 28 -29 34 -29 110 l0 82 28 -15 c15 -8 56 -22 91 -31z
m1524 -95 c163 0 164 0 188 -26 21 -22 24 -35 24 -94 0 -43 -5 -74 -13 -82
-15 -15 -149 -23 -227 -13 -78 9 -142 55 -177 124 -16 30 -28 69 -28 87 l0 33
35 -15 c25 -10 78 -14 198 -14z m-1338 -295 c21 -20 25 -34 25 -84 0 -33 -5
-72 -10 -87 l-11 -27 -157 6 c-169 6 -267 23 -376 65 -76 30 -103 57 -113 115
l-6 37 312 0 312 0 24 -25z m414 7 c54 -27 74 -63 79 -138 l5 -67 -138 5
c-172 6 -175 8 -175 134 l0 84 98 0 c73 0 106 -4 131 -18z"/>
<path d="M1880 3930 c-24 -24 -25 -38 -4 -68 18 -27 55 -29 77 -4 23 26 21 58
-5 76 -30 21 -44 20 -68 -4z"/>
<path d="M2132 3934 c-41 -28 -16 -94 36 -94 21 0 52 34 52 57 0 17 -36 53
-53 53 -7 0 -23 -7 -35 -16z"/>
<path d="M1770 1321 c-5 -11 -10 -24 -10 -30 0 -17 46 -42 64 -35 22 8 31 50
16 69 -18 21 -57 19 -70 -4z"/>
</g>
</svg>
