<?xml version="1.0" standalone="no"?>
<!DOCTYPE svg PUBLIC "-//W3C//DTD SVG 20010904//EN"
 "http://www.w3.org/TR/2001/REC-SVG-20010904/DTD/svg10.dtd">
<svg version="1.0" xmlns="http://www.w3.org/2000/svg"
 width="512.000000pt" height="512.000000pt" viewBox="0 0 512.000000 512.000000"
 preserveAspectRatio="xMidYMid meet">

<g transform="translate(0.000000,512.000000) scale(0.100000,-0.100000)"
fill="#000000" stroke="none">
<path d="M1385 4855 c-27 -26 -28 -28 -21 -116 9 -121 47 -264 93 -351 26 -49
68 -104 130 -169 l93 -96 0 -397 0 -397 25 -24 c15 -16 35 -25 56 -25 28 0 51
18 176 142 l143 143 142 -142 141 -141 -22 -27 c-49 -64 -58 -53 381 -492
l403 -403 -300 -300 -300 -300 -78 0 c-69 0 -81 -3 -102 -25 -24 -23 -25 -29
-25 -160 l0 -135 -80 0 -80 0 0 535 0 536 -25 24 c-22 23 -32 25 -120 25 l-95
0 0 135 c0 131 -1 137 -25 160 -24 25 -24 25 -240 25 l-215 0 0 160 0 160 -80
0 -80 0 0 -160 0 -160 -55 0 c-46 0 -60 -4 -80 -25 -24 -23 -25 -29 -25 -160
l0 -135 -80 0 -80 0 0 280 0 280 -80 0 -80 0 0 -280 0 -280 -131 0 c-72 0
-139 -4 -149 -10 -10 -5 -95 -144 -189 -309 l-171 -298 0 -427 0 -427 25 -24
c23 -24 28 -25 172 -25 116 0 153 3 170 15 14 10 33 50 53 112 18 54 36 102
40 106 4 5 29 7 55 5 l48 -3 -37 -44 c-69 -82 -113 -193 -123 -307 -27 -320
234 -604 557 -604 323 0 584 284 557 604 -10 113 -54 225 -121 305 -20 24 -36
45 -36 47 0 2 36 4 80 4 l80 0 0 -135 c0 -131 1 -137 25 -160 20 -21 34 -25
80 -25 l55 0 0 -135 c0 -131 1 -137 25 -160 l24 -25 311 0 311 0 24 25 c24 23
25 29 25 160 l0 135 83 0 82 0 1 -93 c1 -242 151 -441 394 -523 76 -26 244
-26 320 0 123 42 246 131 296 216 21 35 30 38 39 10 12 -38 131 -145 202 -183
90 -47 168 -67 263 -67 242 0 451 150 531 382 17 47 23 87 23 160 l1 98 58 0
c48 0 62 4 82 25 25 24 25 26 25 215 0 189 0 191 -25 215 -22 23 -31 25 -129
25 l-104 0 -33 138 c-44 180 -47 182 -174 182 l-95 0 0 135 c0 131 -1 137 -25
160 -17 18 -35 25 -62 25 l-37 0 142 143 c127 128 142 147 142 178 0 32 -49
83 -743 776 -812 812 -766 773 -832 722 l-27 -22 -150 150 -149 149 110 138
c122 152 131 177 86 221 l-24 25 -357 0 -357 0 -96 93 c-65 62 -120 104 -169
130 -87 46 -230 84 -351 93 -88 7 -90 6 -116 -21z m2320 -1795 l660 -660 -143
-142 -142 -143 0 130 c0 149 -12 187 -75 248 -109 106 -289 83 -370 -47 -29
-47 -30 -55 -35 -188 l-5 -138 -540 540 -540 540 260 260 c143 143 262 260
265 260 3 0 302 -297 665 -660z m-1705 -1300 l0 -640 -80 0 -80 0 0 137 c0
127 -2 138 -22 160 l-21 23 -637 0 -637 0 -20 -22 c-11 -13 -35 -67 -53 -120
l-32 -98 -49 0 -49 0 0 345 0 345 78 136 77 135 3 -257 c2 -249 3 -259 24
-281 l21 -23 476 0 c474 0 475 0 498 22 23 21 23 22 23 298 0 276 0 277 -23
298 -23 22 -27 22 -499 24 l-476 3 45 78 45 77 694 0 694 0 0 -640z m1325 400
l80 -80 -38 0 c-27 0 -45 -7 -62 -25 -24 -23 -25 -29 -25 -160 l0 -135 -95 0
c-127 0 -130 -2 -174 -182 l-33 -138 -89 0 -89 0 0 135 c0 129 -1 137 -23 158
l-24 22 241 243 c132 133 243 242 246 242 3 0 41 -36 85 -80z m-1965 -240 l0
-160 -360 0 -360 0 0 160 0 160 360 0 360 0 0 -160z m2240 -137 c0 -193 -13
-183 239 -183 254 0 241 -10 241 182 l0 138 80 0 80 0 0 -138 c0 -180 0 -180
150 -184 l104 -3 18 -70 c9 -38 18 -73 18 -77 0 -5 -310 -8 -690 -8 -379 0
-690 3 -690 8 0 4 9 39 18 77 l18 70 104 3 c150 4 150 4 150 184 l0 138 80 0
80 0 0 -137z m-960 -263 l0 -80 -80 0 -80 0 0 80 0 80 80 0 80 0 0 -80z
m-1465 -585 c16 -15 25 -36 25 -55 0 -19 -9 -40 -25 -55 -15 -16 -36 -25 -55
-25 -19 0 -40 9 -55 25 -16 15 -25 36 -25 55 0 19 9 40 25 55 15 16 36 25 55
25 19 0 40 -9 55 -25z m1225 -55 l0 -80 -200 0 -200 0 0 80 0 80 200 0 200 0
0 -80z m935 55 c50 -49 15 -135 -55 -135 -41 0 -80 39 -80 80 0 41 39 80 80
80 19 0 40 -9 55 -25z m960 0 c50 -49 15 -135 -55 -135 -41 0 -80 39 -80 80 0
41 39 80 80 80 19 0 40 -9 55 -25z"/>
<path d="M2927 3362 l-107 -107 58 -58 57 -57 53 52 52 53 133 -133 132 -132
58 58 57 57 -188 188 c-103 103 -189 187 -192 187 -3 0 -54 -48 -113 -108z"/>
<path d="M3437 2962 l-57 -58 83 -82 83 -82 57 58 57 58 -83 82 -83 82 -57
-58z"/>
<path d="M1680 2160 l0 -80 80 0 80 0 0 80 0 80 -80 0 -80 0 0 -80z"/>
<path d="M1680 1840 l0 -80 80 0 80 0 0 80 0 80 -80 0 -80 0 0 -80z"/>
</g>
</svg>
